name C:\Users\u0101727\Documents\MyRepositories\paper-ad\trackingsimulations_3d\Results\TrackSim\IK_c4.mot
datacolumns 32
datarows 11
range 3.85000000 4.01000000
endheader
time	pelvis_tilt	pelvis_list	pelvis_rotation	pelvis_tx	pelvis_ty	pelvis_tz	hip_flexion_l	hip_adduction_l	hip_rotation_l	hip_flexion_r	hip_adduction_r	hip_rotation_r	knee_angle_l	knee_angle_r	ankle_angle_l	ankle_angle_r	subtalar_angle_l	subtalar_angle_r	lumbar_extension	lumbar_bending	lumbar_rotation	arm_flex_l	arm_add_l	arm_rot_l	arm_flex_r	arm_add_r	arm_rot_r	elbow_flex_l	elbow_flex_r	pro_sup_l	pro_sup_r	
          3.85000000	          0.29843253	         -3.02364707	          7.10970361	          0.02599824	          0.92243496	         -0.22397079	        -11.49619445	         -4.77328936	          1.37819432	         26.52068657	          4.44374137	         -7.54740258	        -36.08812966	        -22.75405508	         -4.15505020	         -5.99358183	         13.34046582	        -10.99569657	         -3.96288904	          5.52749742	         -8.62491763	         -1.76260192	        -14.53264881	         19.20519492	         -9.28551295	        -15.61563424	         14.50136073	         22.96971159	         11.49063761	         86.51662706	         86.51662706	
          3.86600000	          0.45638225	         -4.05466792	          6.94041796	          0.04970031	          0.92319721	         -0.22270882	         -9.52554371	         -6.00910498	          1.23366044	         25.60786699	          5.87658770	         -7.47623122	        -40.34994338	        -24.03973880	        -10.31443589	         -4.01360250	         11.97900726	        -11.15823144	         -3.76862223	          6.85100422	         -8.18890754	         -2.26026857	        -14.03277959	         19.48201422	         -9.05975793	        -15.90992351	         14.48193860	         21.88376073	         11.80971847	         86.51662706	         86.51662706	
          3.88200000	          0.64912835	         -4.90185607	          6.86058659	          0.07253919	          0.92452527	         -0.22170295	         -7.19980559	         -6.85955173	          1.79715268	         24.32326279	          7.06329005	         -7.50861563	        -44.67841894	        -24.72729389	        -15.53752421	         -2.01092333	         10.74177726	        -10.96258471	         -3.75535922	          7.95952179	         -7.77028037	         -2.62315315	        -13.59666378	         19.90483207	         -8.72912427	        -16.20473687	         14.34729408	         20.84040117	         12.33072802	         86.51662706	         86.51662706	
          3.89800000	          0.86049039	         -5.59420213	          6.87833277	          0.09443989	          0.92637722	         -0.22091733	         -4.55088008	         -7.36947325	          2.78684663	         22.76309717	          8.04841174	         -7.59911160	        -49.14001186	        -24.89267699	        -18.16667087	         -0.18907039	          9.70460804	        -10.58983988	         -3.90334250	          8.87980493	         -7.35803059	         -2.83718977	        -13.24160755	         20.47409677	         -8.31056018	        -16.50234957	         14.11758045	         19.88751505	         13.08091369	         86.51662706	         86.51662706	
          3.91400000	          1.08636023	         -6.11554460	          7.01496726	          0.11550234	          0.92878806	         -0.22034885	         -1.69390734	         -7.54517023	          4.01105945	         20.98440238	          8.82126717	         -7.73140059	        -53.38495282	        -24.62104971	        -19.13552877	          1.37472083	          8.06923495	        -10.11773525	         -4.18331880	          9.58917857	         -6.97657618	         -2.92622477	        -12.98615149	         21.15423116	         -7.84478569	        -16.79901100	         13.81780217	         19.06517091	         14.08937001	         86.51662706	         86.51662706	
          3.93000000	          1.30395505	         -6.40778761	          7.26762464	          0.13587851	          0.93175087	         -0.21997301	          1.34092491	         -7.33999367	          5.39986334	         19.05537285	          9.32542575	         -7.89157741	        -57.32373168	        -24.02245750	        -18.53934241	          2.70210881	          6.42926286	         -9.55204787	         -4.54158429	         10.01324265	         -6.64641905	         -2.93334473	        -12.84633018	         21.87266609	         -7.37059727	        -17.08235065	         13.47474286	         18.39600785	         15.36383536	         86.51662706	         86.51662706	
          3.94600000	          1.48206763	         -6.45004969	          7.58227352	          0.15577117	          0.93515363	         -0.21969997	          4.48725709	         -6.75915456	          6.79387859	         17.04530240	          9.55244904	         -8.05706946	        -60.77924295	        -23.19586169	        -16.80584018	          3.82346344	          5.06540791	         -8.89642756	         -4.91017373	         10.11845715	         -6.34613109	         -2.91843046	        -12.82290826	         22.53613817	         -6.91907942	        -17.34807075	         13.10954136	         17.89974734	         16.87763411	         86.51662706	         86.51662706	
          3.96200000	          1.59353983	         -6.25489228	          7.88200725	          0.17536858	          0.93882070	         -0.21942247	          7.66529513	         -5.85528292	          8.00868613	         15.01612270	          9.52934243	         -8.19718191	        -63.56381210	        -22.22632162	        -14.40050616	          4.76222636	          3.88135436	         -8.16951228	         -5.23189728	          9.91214215	         -6.02778131	         -2.93978168	        -12.90210557	         23.04481662	         -6.50616661	        -17.59912292	         12.73788323	         17.59445191	         18.57685823	         86.51662706	         86.51662706	
          3.97800000	          1.61814423	         -5.84848277	          8.05781065	          0.19480045	          0.94254360	         -0.21899214	         10.79921353	         -4.70866753	          8.88897333	         13.03478146	          9.30385507	         -8.22879372	        -65.54296224	        -21.20882297	        -11.82103287	          5.53013938	          3.00516600	         -7.44157497	         -5.47829015	          9.41679318	         -5.60105848	         -3.04128967	        -13.06305509	         23.30654219	         -6.13376689	        -17.84289006	         12.37372184	         17.49569633	         20.39997955	         86.51662706	         86.51662706	
          3.99400000	          1.55117175	         -5.28095535	          8.03738766	          0.21412977	          0.94610502	         -0.21832232	         13.81544726	         -3.43202730	          9.33066880	         11.15884075	          8.92955641	         -8.10289387	        -66.62755475	        -20.23182081	         -9.10526183	          6.15498785	          2.23106096	         -6.75707037	         -5.64466831	          8.68965213	         -5.00874691	         -3.24452187	        -13.27818024	         23.26457915	         -5.78628788	        -18.09386892	         12.02459982	         17.60323004	         22.28980886	         86.51662706	         86.51662706	
          4.01000000	          1.41204846	         -4.62235849	          7.80541255	          0.23337865	          0.94932969	         -0.21741114	         16.65240622	         -2.15713825	          9.33704647	          9.40745444	          8.46313538	         -7.82376001	        -66.75630066	        -19.34428085	         -6.51976533	          6.67431173	          1.52017299	         -6.10800765	         -5.75009509	          7.82068102	         -4.24860582	         -3.54498968	        -13.51487943	         22.91188609	         -5.43290266	        -18.37019087	         11.69408272	         17.89002189	         24.19555607	         86.51662706	         86.51662706	
